<?xml version="1.0" standalone="no"?>
<!DOCTYPE svg PUBLIC "-//W3C//DTD SVG 20010904//EN"
 "http://www.w3.org/TR/2001/REC-SVG-20010904/DTD/svg10.dtd">
<svg version="1.0" xmlns="http://www.w3.org/2000/svg"
 width="270.000000pt" height="270.000000pt" viewBox="0 0 270.000000 270.000000"
 preserveAspectRatio="xMidYMid meet">
<metadata>
Created by potrace 1.11, written by Peter Selinger 2001-2013
</metadata>
<g transform="translate(0.000000,270.000000) scale(0.100000,-0.100000)"
fill="#000000" stroke="none">
<path d="M2103 2182 l-43 -3 -1 -157 c0 -86 0 -195 1 -240 1 -46 -2 -82 -7
-80 -88 47 -180 70 -282 71 -195 2 -316 -46 -446 -177 -130 -130 -193 -300
-193 -516 -1 -172 29 -291 102 -413 118 -197 302 -299 524 -292 120 3 166 14
257 60 l85 42 0 -33 0 -34 148 0 148 0 0 879 c-1 484 -4 882 -8 886 -7 7 -215
12 -285 7z m-181 -725 c68 -29 124 -95 153 -182 14 -45 20 -106 19 -220 0 -98
-4 -133 -24 -189 -45 -135 -152 -205 -295 -194 -188 16 -288 157 -289 408 0
200 83 341 226 385 52 16 162 12 210 -8z"/>
<path d="M364 738 c-4 -6 -7 -233 -5 -310 1 -16 16 -18 166 -18 l165 0 1 73
c0 103 0 240 0 252 -1 12 -320 15 -327 3z"/>
</g>
</svg>
